<svg width="24" height="23" viewBox="0 0 24 23" fill="none" xmlns="http://www.w3.org/2000/svg">
<g clip-path="url(#clip0_158_877)">
<path d="M12 0C5.37055 0 0 5.27701 0 11.791C0 17.008 3.43527 21.4157 8.20473 22.9774C8.80473 23.0803 9.02946 22.7277 9.02946 22.4179C9.02946 22.1371 9.01527 21.2088 9.01527 20.2216C6 20.7672 5.22 19.4991 4.98 18.8367C4.84473 18.4969 4.26 17.4507 3.75055 17.1709C3.33055 16.949 2.72945 16.4045 3.73527 16.3895C4.68 16.3745 5.35527 17.2438 5.58 17.5986C6.66 19.3812 8.38473 18.8806 9.07527 18.5708C9.18 17.8044 9.49527 17.2888 9.84 16.994C7.16946 16.6993 4.38 15.682 4.38 11.1714C4.38 9.88943 4.84473 8.82824 5.61055 8.00287C5.48945 7.7081 5.06945 6.50006 5.73055 4.87826C5.73055 4.87826 6.73527 4.56955 9.02946 6.08737C10.0063 5.82106 11.0157 5.68726 12.0295 5.68969C13.0505 5.68969 14.0705 5.82154 15.0295 6.08737C17.3247 4.55454 18.3295 4.87826 18.3295 4.87826C18.9895 6.50006 18.5705 7.7081 18.4505 8.00287C19.2153 8.82824 19.68 9.8755 19.68 11.1714C19.68 15.697 16.8753 16.6993 14.2047 16.994C14.64 17.3628 15.0153 18.0702 15.0153 19.1754C15.0153 20.7522 15 22.0202 15 22.4179C15 22.7277 15.2247 23.0953 15.8247 22.9774C20.5647 21.4157 24 16.994 24 11.791C24 5.27701 18.6305 0 12 0Z" fill="white"/>
</g>
<defs>
<clipPath id="clip0_158_877">
<rect width="24" height="23" fill="white"/>
</clipPath>
</defs>
</svg>
