<svg width="24" height="24" viewBox="0 0 24 24" fill="none" xmlns="http://www.w3.org/2000/svg">
<rect width="24" height="24" rx="12" fill="white"/>
<g clip-path="url(#clip0_158_51)">
<path d="M14.716 6.52078C13.7893 5.78345 12.914 5.08611 12.2553 4.29878L12.004 3.99878L11.748 4.29478C10.754 5.44278 10.478 6.84211 10.256 7.96678C9.986 9.33411 9.82 9.99145 9 9.99145C8.868 9.99145 8.76667 9.94545 8.672 9.84211C8.26733 9.40011 8.214 8.11811 8.276 7.41345L8.358 6.47811L7.70467 7.15211C6.75933 8.12745 5 9.94278 5 12.9994C5 16.8594 8.14 19.9994 12 19.9994C15.86 19.9994 19 16.8594 19 12.9994C19 9.93078 16.822 8.19745 14.716 6.52078ZM10.1147 18.5528C9.07467 17.5114 9.07467 15.8188 10.1 14.7934L12.0007 13.1121L13.886 14.7801C14.9253 15.8208 14.9253 17.5134 13.886 18.5528C12.8467 19.5921 11.1547 19.5934 10.1147 18.5528ZM14.5433 18.7961C15.638 17.4881 15.5853 15.5374 14.3427 14.2948L12.0007 12.2214L9.64333 14.3081C8.41467 15.5361 8.36267 17.4854 9.45733 18.7954C7.22867 17.8134 5.66733 15.5868 5.66733 12.9994C5.66733 10.8441 6.58067 9.40211 7.59267 8.25145C7.61667 8.92811 7.74 9.81011 8.18067 10.2914C8.4 10.5308 8.68267 10.6574 9 10.6574C10.4047 10.6574 10.6507 9.41278 10.91 8.09478C11.106 7.10011 11.326 5.98545 12.0133 5.03145C12.6693 5.74211 13.4647 6.37545 14.3007 7.04078C16.2833 8.61945 18.3333 10.2514 18.3333 12.9988C18.3333 15.5868 16.7713 17.8134 14.5427 18.7954L14.5433 18.7961Z" fill="#131313"/>
</g>
<defs>
<clipPath id="clip0_158_51">
<rect width="16" height="16" fill="white" transform="translate(4 4)"/>
</clipPath>
</defs>
</svg>
