<svg width="281" height="112" viewBox="0 0 281 112" fill="none" xmlns="http://www.w3.org/2000/svg">
<path d="M64.0891 37.0288C69.6511 34.531 73.82 30.1282 77.8896 25.7748C80.0945 30.6433 80.169 36.2879 78.5028 41.3293C77.4961 44.3703 74.8799 43.5342 72.2921 44.3033C66.0459 46.1589 60.1755 49.5563 55.365 53.8886C51.2317 50.2478 48.0199 46.6529 42.8018 44.2821C41.4724 43.6788 37.0696 42.7581 36.8215 41.428C36.5237 39.8334 36.8676 35.4377 37.2646 33.776C38.8563 27.1612 46.0454 23.2735 50.4624 18.7472C55.163 13.9281 59.066 7.01346 57.3573 0.0987886C60.2854 -0.553871 62.7172 2.09205 64.4295 4.15234C71.1152 12.2065 71.5158 21.94 67.3398 31.2924L64.0891 37.0288Z" fill="#037D25"/>
<path d="M42.2803 73.3977C47.8991 67.3509 59.4591 66.9346 66.1838 71.3586C76.7832 78.3297 77.244 100.33 67.2438 107.879C62.3305 111.587 53.9432 112.243 48.2323 110.296C34.7792 105.71 33.613 82.7184 42.2803 73.3977ZM54.0743 76.8621C46.201 78.4814 46.3038 95.5247 50.2848 100.517C53.5391 104.598 59.7108 103.678 61.976 99.1337C63.9647 95.1472 63.9895 86.2216 62.4971 82.0481C61.2138 78.4567 58.0447 76.0436 54.0708 76.8586L54.0743 76.8621Z" fill="#037D25"/>
<path d="M116.136 70.4485C123.424 70.5085 130.833 70.4238 138.036 71.3798C145.438 72.7628 148.31 81.4943 143.946 87.3506L140.217 89.9683C142.152 90.8679 144.166 91.4571 145.509 93.2387C148.866 97.6979 147.891 105.17 143.219 108.437C142.585 108.881 137.678 110.903 137.203 110.903H116.136V70.452V70.4485ZM125.342 86.9802H132.247C132.34 86.9802 133.729 86.3628 133.963 86.2252C136.147 84.927 137.03 81.773 135.268 79.7586C134.942 79.3846 132.584 78.1887 132.247 78.1887H125.874L125.342 78.7179V86.9837V86.9802ZM125.874 94.0148L125.342 94.544V102.986L125.874 103.515H132.247C132.676 103.515 135.675 102.482 136.15 102.115C138.596 100.231 137.728 96.1033 134.988 94.8121C134.701 94.678 132.726 94.0183 132.602 94.0183H125.874V94.0148Z" fill="#037D25"/>
<path d="M9.91519 69.3936V84.6941L10.7128 85.1527L22.3083 84.867V69.9158L22.84 69.3866H32.4007L32.578 110.543H22.84L22.3083 110.014V93.4821L21.7765 92.9529H10.8014C10.7376 92.9529 9.91519 93.7714 9.91519 93.8314V110.539H0V69.9122L0.53174 69.3831H9.91519V69.3936Z" fill="#037D25"/>
<path d="M227.67 70.4486V87.3331C228.312 87.4566 228.549 87.0226 228.886 86.6063C231.903 82.9126 234.533 76.4319 237.436 72.2372C237.869 71.6163 238.22 70.939 238.822 70.4486H249.62L237.312 89.9755L250.68 110.896L238.89 110.931L228.886 94.3889L227.67 93.6621V110.899C225.252 110.963 222.817 110.818 220.396 110.882C219.839 110.896 217.755 111.609 217.755 110.723V70.9743L218.287 70.4451H227.67V70.4486Z" fill="#037D25"/>
<path d="M260.953 99.2925C261.01 103.868 268.022 105.516 270.667 102.087C272.503 99.7053 270.387 97.391 268.291 96.0504C262.758 92.5119 253.172 92.2156 252.141 83.9532C249.886 65.8904 278.898 65.7917 280.029 79.113C280.103 80.0126 280.355 81.0957 279.543 81.706H271.4C270.567 80.4571 270.787 79.3846 269.472 78.3474C264.729 74.6079 257.869 80.757 264.385 84.807C271.283 89.0969 281.099 88.5642 281.004 99.7617C280.88 114.477 257.589 115.528 252.517 105.039C252.01 103.992 251.432 101.18 251.464 100.086C251.478 99.6559 251.595 99.5465 251.925 99.2925H260.953Z" fill="#037D25"/>
<path d="M207.312 70.4485L207.687 71.1646C204.851 75.0101 201.898 78.7849 198.977 82.5739C198.307 83.4452 197.024 83.9427 197.219 85.2198C202.306 83.3112 208.91 85.2868 211.523 90.18C218.904 104.006 204.167 116.004 190.59 110.624C183.596 107.851 181.724 101.508 182.334 94.5299C182.774 89.4709 191.834 76.1848 195.294 71.8773C195.713 71.3552 196.219 70.9212 196.687 70.4485H207.308H207.312ZM193.788 102.7C198.853 106.962 205.472 100.979 202.799 94.9815C201.154 91.2877 195.429 90.6033 192.972 93.8455C190.962 96.502 191.168 100.499 193.788 102.7Z" fill="#037D25"/>
<path d="M175.088 70.4485L175.446 71.147L164.641 85.2198C174.992 82.3869 181.493 89.3121 180.568 99.4619C179.133 115.189 151.911 116.653 149.788 99.8006C148.469 89.3227 159.206 78.9613 164.109 70.4485H175.084H175.088ZM163.124 91.9792C160.883 92.4766 159.352 95.5918 159.338 97.712C159.295 103.519 166.045 106.451 169.753 101.73C171.678 99.2784 171.607 95.6024 169.391 93.3445C167.853 91.7781 165.215 91.5135 163.124 91.9792Z" fill="#037D25"/>
<path d="M96.6633 110.55H86.3936V77.8358H76.6556L76.1274 77.3066V69.3936H106.752L107.284 69.9192V77.3066L106.752 77.8358H97.195L96.6633 78.3615V110.55Z" fill="#037D25"/>
<path d="M89.5626 64.8004L85.493 64.4828L86.7798 50.5688L86.1949 49.006C78.8675 50.971 71.6465 53.0101 65.0458 56.7991C61.8376 58.6407 57.5802 61.2337 56.2437 64.7616L52.2734 64.8392C48.0656 54.7882 37.1117 50.7735 27.434 47.5913L26.5265 48.0817L24.272 64.4828L20.1846 64.8215C20.2236 63.8337 20.1173 62.8247 20.1917 61.8334C20.5179 57.3988 21.4679 49.327 22.464 45.0936C22.5775 44.6138 23.3715 43.0333 23.7331 42.8357C25.9558 41.6186 33.588 44.388 36.0092 45.4075C42.929 48.3286 49.6253 53.0736 54.0033 59.184C57.5305 55.8395 61.7774 52.9431 66.2227 50.9287C71.0084 48.759 81.3135 44.8431 86.3048 44.1481C93.2245 43.185 90.5658 47.616 90.2964 51.9835C90.1936 53.6452 90.1085 64.2782 89.5661 64.8004H89.5626Z" fill="#037D25"/>
</svg>
